<?xml version="1.0" standalone="no"?>
<!DOCTYPE svg PUBLIC "-//W3C//DTD SVG 20010904//EN"
 "http://www.w3.org/TR/2001/REC-SVG-20010904/DTD/svg10.dtd">
<svg version="1.0" xmlns="http://www.w3.org/2000/svg"
 width="512.000000pt" height="512.000000pt" viewBox="0 0 512.000000 512.000000"
 preserveAspectRatio="xMidYMid meet">
<metadata>
Created by potrace 1.14, written by Peter Selinger 2001-2017
</metadata>
<g transform="translate(0.000000,512.000000) scale(0.100000,-0.100000)"
fill="#000000" stroke="none">
<path d="M2890 4288 c0 -4 13 -36 29 -70 50 -109 62 -154 50 -185 -5 -16 -43
-59 -83 -98 l-73 -70 -56 3 -56 4 -11 51 c-11 56 -39 260 -40 290 0 11 -13 24
-35 33 -36 15 -132 19 -151 6 -6 -4 -16 -63 -23 -132 -15 -151 -31 -250 -40
-250 -9 0 -81 49 -108 73 -12 11 -25 34 -29 51 -3 17 -13 49 -22 70 l-15 39
-25 -54 c-34 -76 -35 -110 -7 -163 16 -30 20 -46 12 -49 -17 -5 -66 14 -112
43 -94 61 -245 109 -341 110 -56 0 -132 -24 -174 -55 l-35 -26 84 7 c47 4 94
8 105 8 39 3 206 -60 219 -82 3 -4 -46 -18 -109 -30 -361 -71 -641 -231 -823
-471 -260 -343 -342 -750 -246 -1221 72 -357 249 -658 515 -882 234 -195 595
-332 965 -365 103 -9 373 -9 495 1 213 16 530 82 655 136 11 5 52 22 90 39
421 179 713 519 825 956 44 174 55 265 55 475 0 224 -9 289 -66 462 -90 276
-302 567 -521 714 -109 73 -301 154 -367 154 -40 0 -21 17 37 33 139 40 223
41 366 6 44 -10 81 -17 84 -15 5 6 -121 43 -212 63 -44 9 -124 16 -211 16
-130 0 -146 -2 -230 -30 -78 -26 -100 -30 -167 -26 -43 3 -78 8 -78 12 0 3 11
22 23 41 29 42 45 88 41 114 -7 49 -17 67 -71 132 -32 38 -70 85 -85 104 -15
19 -28 32 -28 28z"/>
</g>
</svg>
